<svg width="46" height="46" fill="#000000" viewBox="0 0 24 24" xmlns="http://www.w3.org/2000/svg">
  <path fill-rule="evenodd" d="M20.75 4.5a1.25 1.25 0 0 0-1.25-1.25h-15A1.25 1.25 0 0 0 3.25 4.5v15a1.25 1.25 0 0 0 1.25 1.25h15a1.25 1.25 0 0 0 1.25-1.25v-15ZM2 4.5A2.5 2.5 0 0 1 4.5 2h15A2.5 2.5 0 0 1 22 4.5v15a2.5 2.5 0 0 1-2.5 2.5h-15A2.5 2.5 0 0 1 2 19.5v-15Zm5.625 6.875a.625.625 0 1 0 0 1.25h7.241l-2.684 2.682a.627.627 0 0 0 .886.885l3.75-3.75a.625.625 0 0 0 0-.885l-3.75-3.75a.626.626 0 1 0-.886.886l2.684 2.682H7.625Z" clip-rule="evenodd"></path>
</svg>