<svg width="46" height="46" fill="#000000" viewBox="0 0 24 24" xmlns="http://www.w3.org/2000/svg">
  <path d="M3.875 3.25a.625.625 0 0 0-.625.625v5a.625.625 0 0 1-1.25 0v-5A1.875 1.875 0 0 1 3.875 2h5a.625.625 0 0 1 0 1.25h-5ZM14.5 2.625A.625.625 0 0 1 15.125 2h5A1.875 1.875 0 0 1 22 3.875v5a.625.625 0 1 1-1.25 0v-5a.625.625 0 0 0-.625-.625h-5a.625.625 0 0 1-.625-.625ZM2.625 14.5a.625.625 0 0 1 .625.625v5a.625.625 0 0 0 .625.625h5a.625.625 0 1 1 0 1.25h-5A1.875 1.875 0 0 1 2 20.125v-5a.625.625 0 0 1 .625-.625Zm18.75 0a.624.624 0 0 1 .625.625v5A1.875 1.875 0 0 1 20.125 22h-5a.624.624 0 1 1 0-1.25h5a.624.624 0 0 0 .625-.625v-5a.624.624 0 0 1 .625-.625Z"></path>
</svg>