<svg width="46" height="46" fill="#000000" viewBox="0 0 24 24" xmlns="http://www.w3.org/2000/svg">
  <path d="M16.724 19.692a10.17 10.17 0 0 0 2.988-7.212 10.168 10.168 0 0 0-2.988-7.212l-.85.848a8.971 8.971 0 0 1 2.636 6.364 8.972 8.972 0 0 1-2.636 6.363l.85.849Z"></path>
  <path d="M15.025 17.995a7.775 7.775 0 0 0 2.285-5.515 7.775 7.775 0 0 0-2.285-5.515l-.848.848a6.582 6.582 0 0 1 1.933 4.667 6.578 6.578 0 0 1-1.932 4.668l.847.847Z"></path>
  <path d="M13.328 16.298a5.38 5.38 0 0 0 1.582-3.819 5.381 5.381 0 0 0-1.582-3.818l-.848.848a4.186 4.186 0 0 1 1.23 2.97 4.185 4.185 0 0 1-1.23 2.97l.848.849ZM10.94 7.139a.6.6 0 0 1 .34.54v9.6a.6.6 0 0 1-.974.468L7.47 15.48H4.68a.6.6 0 0 1-.6-.6v-4.8a.6.6 0 0 1 .6-.6h2.79l2.836-2.268a.6.6 0 0 1 .634-.072Z"></path>
</svg>